<svg xmlns="http://www.w3.org/2000/svg" viewBox="0 0 1040 630" width="100%" height="630">
  <defs>
    <linearGradient id="mabaGrad" x1="0" y1="0" x2="0" y2="1">
      <stop offset="0%" stop-color="#305cfc"/>
      <stop offset="100%" stop-color="#9db9ff"/>
    </linearGradient>
    <linearGradient id="smolGrad" x1="0" y1="0" x2="0" y2="1">
      <stop offset="0%" stop-color="#b8c8fd"/>
      <stop offset="100%" stop-color="#e2e9ff"/>
    </linearGradient>
    <linearGradient id="metaGrad" x1="0" y1="0" x2="0" y2="1">
      <stop offset="0%" stop-color="#c4c8d0"/>
      <stop offset="100%" stop-color="#e1e4ea"/>
    </linearGradient>
    <linearGradient id="baseGrad" x1="0" y1="0" x2="0" y2="1">
      <stop offset="0%" stop-color="#e8eaee"/>
      <stop offset="100%" stop-color="#f4f5f8"/>
    </linearGradient>
  </defs>
  <rect width="1040" height="630" fill="#ffffff"/>
  <g transform="translate(35, 25)">
    <text x="0" y="16" font-family="-apple-system, BlinkMacSystemFont, 'Segoe UI', Roboto, Helvetica, Arial, sans-serif" font-size="16" font-weight="700" fill="#111827">ARC-Challenge</text>
    <text x="0" y="32" font-family="-apple-system, BlinkMacSystemFont, 'Segoe UI', Roboto, Helvetica, Arial, sans-serif" font-size="11" font-weight="400" fill="#6b7280">Multi-Hop Reasoning (25-shot)</text>
    <text x="24" y="73.5" text-anchor="end" font-family="-apple-system, BlinkMacSystemFont, 'Segoe UI', Roboto, sans-serif" font-size="10" fill="#9ca3af">60</text>
    <text x="24" y="118.5" text-anchor="end" font-family="-apple-system, BlinkMacSystemFont, 'Segoe UI', Roboto, sans-serif" font-size="10" fill="#9ca3af">40</text>
    <text x="24" y="163.5" text-anchor="end" font-family="-apple-system, BlinkMacSystemFont, 'Segoe UI', Roboto, sans-serif" font-size="10" fill="#9ca3af">20</text>
    <text x="24" y="208.5" text-anchor="end" font-family="-apple-system, BlinkMacSystemFont, 'Segoe UI', Roboto, sans-serif" font-size="10" fill="#9ca3af">0</text>
    <line x1="30" y1="205" x2="205" y2="205" stroke="#e5e7eb" stroke-width="1"/>
    <path d="M 40.0,205.0 L 40.0,103.7 Q 40.0,99.7 44.0,99.7 L 68.0,99.7 Q 72.0,99.7 72.0,103.7 L 72.0,205.0 Z" fill="url(#mabaGrad)"/>
    <text x="56.0" y="93.7" text-anchor="middle" font-family="-apple-system, BlinkMacSystemFont, 'Segoe UI', Roboto, sans-serif" font-size="12" font-weight="700" fill="#111827">46.8</text>
    <g transform="translate(56.0, 115.7)">
      <circle cx="0" cy="0" r="9" fill="#2548dc"/>
      <path d="M 0,-4.5 L 4.2,3 L -4.2,3 Z" fill="none" stroke="#ffffff" stroke-width="1.3" stroke-linejoin="round"/>
      <circle cx="0" cy="0.5" r="1.2" fill="#ffffff"/>
    </g>
    <path d="M 80.0,205.0 L 80.0,110.2 Q 80.0,106.2 84.0,106.2 L 108.0,106.2 Q 112.0,106.2 112.0,110.2 L 112.0,205.0 Z" fill="url(#smolGrad)"/>
    <text x="96.0" y="100.2" text-anchor="middle" font-family="-apple-system, BlinkMacSystemFont, 'Segoe UI', Roboto, sans-serif" font-size="11" font-weight="500" fill="#4b5563">43.9</text>
    <g transform="translate(96.0, 122.2)">
      <circle cx="0" cy="0" r="9" fill="#f59e0b"/>
      <circle cx="-2.5" cy="-1.5" r="1.1" fill="#ffffff"/>
      <circle cx="2.5" cy="-1.5" r="1.1" fill="#ffffff"/>
      <path d="M -3.2,1.5 Q 0,4.2 3.2,1.5" fill="none" stroke="#ffffff" stroke-width="1.3" stroke-linecap="round"/>
    </g>
    <path d="M 120.0,205.0 L 120.0,112.0 Q 120.0,108.0 124.0,108.0 L 148.0,108.0 Q 152.0,108.0 152.0,112.0 L 152.0,205.0 Z" fill="url(#metaGrad)"/>
    <text x="136.0" y="102.0" text-anchor="middle" font-family="-apple-system, BlinkMacSystemFont, 'Segoe UI', Roboto, sans-serif" font-size="11" font-weight="500" fill="#4b5563">43.1</text>
    <g transform="translate(136.0, 124.0)">
      <circle cx="0" cy="0" r="9" fill="#0081fb"/>
      <path d="M -4,0 C -4,-2.2 -1.8,-2.2 0,0 C 1.8,2.2 4,2.2 4,0 C 4,-2.2 1.8,-2.2 0,0 C -1.8,2.2 -4,2.2 -4,0 Z" fill="none" stroke="#ffffff" stroke-width="1.2"/>
    </g>
    <path d="M 160.0,205.0 L 160.0,132.1 Q 160.0,128.1 164.0,128.1 L 188.0,128.1 Q 192.0,128.1 192.0,132.1 L 192.0,205.0 Z" fill="url(#baseGrad)"/>
    <text x="176.0" y="122.1" text-anchor="middle" font-family="-apple-system, BlinkMacSystemFont, 'Segoe UI', Roboto, sans-serif" font-size="11" font-weight="500" fill="#4b5563">34.2</text>
    <g transform="translate(176.0, 144.1)">
      <circle cx="0" cy="0" r="9" fill="#64748b"/>
      <rect x="-3.5" y="-3.5" width="7" height="1.8" rx="0.5" fill="#ffffff"/>
      <rect x="-3.5" y="-0.9" width="7" height="1.8" rx="0.5" fill="#ffffff"/>
      <rect x="-3.5" y="1.7" width="7" height="1.8" rx="0.5" fill="#ffffff"/>
    </g>
  </g>
  <g transform="translate(285, 25)">
    <text x="0" y="16" font-family="-apple-system, BlinkMacSystemFont, 'Segoe UI', Roboto, Helvetica, Arial, sans-serif" font-size="16" font-weight="700" fill="#111827">HellaSwag</text>
    <text x="0" y="32" font-family="-apple-system, BlinkMacSystemFont, 'Segoe UI', Roboto, Helvetica, Arial, sans-serif" font-size="11" font-weight="400" fill="#6b7280">Commonsense Reasoning (10-shot)</text>
    <text x="24" y="73.5" text-anchor="end" font-family="-apple-system, BlinkMacSystemFont, 'Segoe UI', Roboto, sans-serif" font-size="10" fill="#9ca3af">60</text>
    <text x="24" y="118.5" text-anchor="end" font-family="-apple-system, BlinkMacSystemFont, 'Segoe UI', Roboto, sans-serif" font-size="10" fill="#9ca3af">40</text>
    <text x="24" y="163.5" text-anchor="end" font-family="-apple-system, BlinkMacSystemFont, 'Segoe UI', Roboto, sans-serif" font-size="10" fill="#9ca3af">20</text>
    <text x="24" y="208.5" text-anchor="end" font-family="-apple-system, BlinkMacSystemFont, 'Segoe UI', Roboto, sans-serif" font-size="10" fill="#9ca3af">0</text>
    <line x1="30" y1="205" x2="205" y2="205" stroke="#e5e7eb" stroke-width="1"/>
    <path d="M 40.0,205.0 L 40.0,108.9 Q 40.0,104.9 44.0,104.9 L 68.0,104.9 Q 72.0,104.9 72.0,108.9 L 72.0,205.0 Z" fill="url(#mabaGrad)"/>
    <text x="56.0" y="98.9" text-anchor="middle" font-family="-apple-system, BlinkMacSystemFont, 'Segoe UI', Roboto, sans-serif" font-size="12" font-weight="700" fill="#111827">44.5</text>
    <g transform="translate(56.0, 120.9)">
      <circle cx="0" cy="0" r="9" fill="#2548dc"/>
      <path d="M 0,-4.5 L 4.2,3 L -4.2,3 Z" fill="none" stroke="#ffffff" stroke-width="1.3" stroke-linejoin="round"/>
      <circle cx="0" cy="0.5" r="1.2" fill="#ffffff"/>
    </g>
    <path d="M 80.0,205.0 L 80.0,114.3 Q 80.0,110.3 84.0,110.3 L 108.0,110.3 Q 112.0,110.3 112.0,114.3 L 112.0,205.0 Z" fill="url(#smolGrad)"/>
    <text x="96.0" y="104.3" text-anchor="middle" font-family="-apple-system, BlinkMacSystemFont, 'Segoe UI', Roboto, sans-serif" font-size="11" font-weight="500" fill="#4b5563">42.1</text>
    <g transform="translate(96.0, 126.3)">
      <circle cx="0" cy="0" r="9" fill="#f59e0b"/>
      <circle cx="-2.5" cy="-1.5" r="1.1" fill="#ffffff"/>
      <circle cx="2.5" cy="-1.5" r="1.1" fill="#ffffff"/>
      <path d="M -3.2,1.5 Q 0,4.2 3.2,1.5" fill="none" stroke="#ffffff" stroke-width="1.3" stroke-linecap="round"/>
    </g>
    <path d="M 120.0,205.0 L 120.0,115.4 Q 120.0,111.4 124.0,111.4 L 148.0,111.4 Q 152.0,111.4 152.0,115.4 L 152.0,205.0 Z" fill="url(#metaGrad)"/>
    <text x="136.0" y="105.4" text-anchor="middle" font-family="-apple-system, BlinkMacSystemFont, 'Segoe UI', Roboto, sans-serif" font-size="11" font-weight="500" fill="#4b5563">41.6</text>
    <g transform="translate(136.0, 127.4)">
      <circle cx="0" cy="0" r="9" fill="#0081fb"/>
      <path d="M -4,0 C -4,-2.2 -1.8,-2.2 0,0 C 1.8,2.2 4,2.2 4,0 C 4,-2.2 1.8,-2.2 0,0 C -1.8,2.2 -4,2.2 -4,0 Z" fill="none" stroke="#ffffff" stroke-width="1.2"/>
    </g>
    <path d="M 160.0,205.0 L 160.0,128.5 Q 160.0,124.5 164.0,124.5 L 188.0,124.5 Q 192.0,124.5 192.0,128.5 L 192.0,205.0 Z" fill="url(#baseGrad)"/>
    <text x="176.0" y="118.5" text-anchor="middle" font-family="-apple-system, BlinkMacSystemFont, 'Segoe UI', Roboto, sans-serif" font-size="11" font-weight="500" fill="#4b5563">35.8</text>
    <g transform="translate(176.0, 140.5)">
      <circle cx="0" cy="0" r="9" fill="#64748b"/>
      <rect x="-3.5" y="-3.5" width="7" height="1.8" rx="0.5" fill="#ffffff"/>
      <rect x="-3.5" y="-0.9" width="7" height="1.8" rx="0.5" fill="#ffffff"/>
      <rect x="-3.5" y="1.7" width="7" height="1.8" rx="0.5" fill="#ffffff"/>
    </g>
  </g>
  <g transform="translate(535, 25)">
    <text x="0" y="16" font-family="-apple-system, BlinkMacSystemFont, 'Segoe UI', Roboto, Helvetica, Arial, sans-serif" font-size="16" font-weight="700" fill="#111827">MMLU</text>
    <text x="0" y="32" font-family="-apple-system, BlinkMacSystemFont, 'Segoe UI', Roboto, Helvetica, Arial, sans-serif" font-size="11" font-weight="400" fill="#6b7280">General Knowledge (5-shot)</text>
    <text x="24" y="73.5" text-anchor="end" font-family="-apple-system, BlinkMacSystemFont, 'Segoe UI', Roboto, sans-serif" font-size="10" fill="#9ca3af">50</text>
    <text x="24" y="100.5" text-anchor="end" font-family="-apple-system, BlinkMacSystemFont, 'Segoe UI', Roboto, sans-serif" font-size="10" fill="#9ca3af">40</text>
    <text x="24" y="127.5" text-anchor="end" font-family="-apple-system, BlinkMacSystemFont, 'Segoe UI', Roboto, sans-serif" font-size="10" fill="#9ca3af">30</text>
    <text x="24" y="154.5" text-anchor="end" font-family="-apple-system, BlinkMacSystemFont, 'Segoe UI', Roboto, sans-serif" font-size="10" fill="#9ca3af">20</text>
    <text x="24" y="181.5" text-anchor="end" font-family="-apple-system, BlinkMacSystemFont, 'Segoe UI', Roboto, sans-serif" font-size="10" fill="#9ca3af">10</text>
    <text x="24" y="208.5" text-anchor="end" font-family="-apple-system, BlinkMacSystemFont, 'Segoe UI', Roboto, sans-serif" font-size="10" fill="#9ca3af">0</text>
    <line x1="30" y1="205" x2="205" y2="205" stroke="#e5e7eb" stroke-width="1"/>
    <path d="M 40.0,205.0 L 40.0,118.3 Q 40.0,114.3 44.0,114.3 L 68.0,114.3 Q 72.0,114.3 72.0,118.3 L 72.0,205.0 Z" fill="url(#mabaGrad)"/>
    <text x="56.0" y="108.3" text-anchor="middle" font-family="-apple-system, BlinkMacSystemFont, 'Segoe UI', Roboto, sans-serif" font-size="12" font-weight="700" fill="#111827">33.6</text>
    <g transform="translate(56.0, 130.3)">
      <circle cx="0" cy="0" r="9" fill="#2548dc"/>
      <path d="M 0,-4.5 L 4.2,3 L -4.2,3 Z" fill="none" stroke="#ffffff" stroke-width="1.3" stroke-linejoin="round"/>
      <circle cx="0" cy="0.5" r="1.2" fill="#ffffff"/>
    </g>
    <path d="M 80.0,205.0 L 80.0,124.0 Q 80.0,120.0 84.0,120.0 L 108.0,120.0 Q 112.0,120.0 112.0,124.0 L 112.0,205.0 Z" fill="url(#smolGrad)"/>
    <text x="96.0" y="114.0" text-anchor="middle" font-family="-apple-system, BlinkMacSystemFont, 'Segoe UI', Roboto, sans-serif" font-size="11" font-weight="500" fill="#4b5563">31.5</text>
    <g transform="translate(96.0, 135.9)">
      <circle cx="0" cy="0" r="9" fill="#f59e0b"/>
      <circle cx="-2.5" cy="-1.5" r="1.1" fill="#ffffff"/>
      <circle cx="2.5" cy="-1.5" r="1.1" fill="#ffffff"/>
      <path d="M -3.2,1.5 Q 0,4.2 3.2,1.5" fill="none" stroke="#ffffff" stroke-width="1.3" stroke-linecap="round"/>
    </g>
    <path d="M 120.0,205.0 L 120.0,128.5 Q 120.0,124.5 124.0,124.5 L 148.0,124.5 Q 152.0,124.5 152.0,128.5 L 152.0,205.0 Z" fill="url(#metaGrad)"/>
    <text x="136.0" y="118.5" text-anchor="middle" font-family="-apple-system, BlinkMacSystemFont, 'Segoe UI', Roboto, sans-serif" font-size="11" font-weight="500" fill="#4b5563">29.8</text>
    <g transform="translate(136.0, 140.5)">
      <circle cx="0" cy="0" r="9" fill="#0081fb"/>
      <path d="M -4,0 C -4,-2.2 -1.8,-2.2 0,0 C 1.8,2.2 4,2.2 4,0 C 4,-2.2 1.8,-2.2 0,0 C -1.8,2.2 -4,2.2 -4,0 Z" fill="none" stroke="#ffffff" stroke-width="1.2"/>
    </g>
    <path d="M 160.0,205.0 L 160.0,140.4 Q 160.0,136.4 164.0,136.4 L 188.0,136.4 Q 192.0,136.4 192.0,140.4 L 192.0,205.0 Z" fill="url(#baseGrad)"/>
    <text x="176.0" y="130.4" text-anchor="middle" font-family="-apple-system, BlinkMacSystemFont, 'Segoe UI', Roboto, sans-serif" font-size="11" font-weight="500" fill="#4b5563">25.4</text>
    <g transform="translate(176.0, 152.4)">
      <circle cx="0" cy="0" r="9" fill="#64748b"/>
      <rect x="-3.5" y="-3.5" width="7" height="1.8" rx="0.5" fill="#ffffff"/>
      <rect x="-3.5" y="-0.9" width="7" height="1.8" rx="0.5" fill="#ffffff"/>
      <rect x="-3.5" y="1.7" width="7" height="1.8" rx="0.5" fill="#ffffff"/>
    </g>
  </g>
  <g transform="translate(785, 25)">
    <text x="0" y="16" font-family="-apple-system, BlinkMacSystemFont, 'Segoe UI', Roboto, Helvetica, Arial, sans-serif" font-size="16" font-weight="700" fill="#111827">GSM8K</text>
    <text x="0" y="32" font-family="-apple-system, BlinkMacSystemFont, 'Segoe UI', Roboto, Helvetica, Arial, sans-serif" font-size="11" font-weight="400" fill="#6b7280">Math Problem Solving (8-shot)</text>
    <text x="24" y="73.5" text-anchor="end" font-family="-apple-system, BlinkMacSystemFont, 'Segoe UI', Roboto, sans-serif" font-size="10" fill="#9ca3af">30</text>
    <text x="24" y="118.5" text-anchor="end" font-family="-apple-system, BlinkMacSystemFont, 'Segoe UI', Roboto, sans-serif" font-size="10" fill="#9ca3af">20</text>
    <text x="24" y="163.5" text-anchor="end" font-family="-apple-system, BlinkMacSystemFont, 'Segoe UI', Roboto, sans-serif" font-size="10" fill="#9ca3af">10</text>
    <text x="24" y="208.5" text-anchor="end" font-family="-apple-system, BlinkMacSystemFont, 'Segoe UI', Roboto, sans-serif" font-size="10" fill="#9ca3af">0</text>
    <line x1="30" y1="205" x2="205" y2="205" stroke="#e5e7eb" stroke-width="1"/>
    <path d="M 40.0,205.0 L 40.0,112.7 Q 40.0,108.7 44.0,108.7 L 68.0,108.7 Q 72.0,108.7 72.0,112.7 L 72.0,205.0 Z" fill="url(#mabaGrad)"/>
    <text x="56.0" y="102.7" text-anchor="middle" font-family="-apple-system, BlinkMacSystemFont, 'Segoe UI', Roboto, sans-serif" font-size="12" font-weight="700" fill="#111827">21.4</text>
    <g transform="translate(56.0, 124.7)">
      <circle cx="0" cy="0" r="9" fill="#2548dc"/>
      <path d="M 0,-4.5 L 4.2,3 L -4.2,3 Z" fill="none" stroke="#ffffff" stroke-width="1.3" stroke-linejoin="round"/>
      <circle cx="0" cy="0.5" r="1.2" fill="#ffffff"/>
    </g>
    <path d="M 80.0,205.0 L 80.0,127.1 Q 80.0,123.1 84.0,123.1 L 108.0,123.1 Q 112.0,123.1 112.0,127.1 L 112.0,205.0 Z" fill="url(#smolGrad)"/>
    <text x="96.0" y="117.1" text-anchor="middle" font-family="-apple-system, BlinkMacSystemFont, 'Segoe UI', Roboto, sans-serif" font-size="11" font-weight="500" fill="#4b5563">18.2</text>
    <g transform="translate(96.0, 139.1)">
      <circle cx="0" cy="0" r="9" fill="#f59e0b"/>
      <circle cx="-2.5" cy="-1.5" r="1.1" fill="#ffffff"/>
      <circle cx="2.5" cy="-1.5" r="1.1" fill="#ffffff"/>
      <path d="M -3.2,1.5 Q 0,4.2 3.2,1.5" fill="none" stroke="#ffffff" stroke-width="1.3" stroke-linecap="round"/>
    </g>
    <path d="M 120.0,205.0 L 120.0,137.4 Q 120.0,133.4 124.0,133.4 L 148.0,133.4 Q 152.0,133.4 152.0,137.4 L 152.0,205.0 Z" fill="url(#metaGrad)"/>
    <text x="136.0" y="127.4" text-anchor="middle" font-family="-apple-system, BlinkMacSystemFont, 'Segoe UI', Roboto, sans-serif" font-size="11" font-weight="500" fill="#4b5563">15.9</text>
    <g transform="translate(136.0, 149.4)">
      <circle cx="0" cy="0" r="9" fill="#0081fb"/>
      <path d="M -4,0 C -4,-2.2 -1.8,-2.2 0,0 C 1.8,2.2 4,2.2 4,0 C 4,-2.2 1.8,-2.2 0,0 C -1.8,2.2 -4,2.2 -4,0 Z" fill="none" stroke="#ffffff" stroke-width="1.2"/>
    </g>
    <path d="M 160.0,205.0 L 160.0,166.2 Q 160.0,162.2 164.0,162.2 L 188.0,162.2 Q 192.0,162.2 192.0,166.2 L 192.0,205.0 Z" fill="url(#baseGrad)"/>
    <text x="176.0" y="156.2" text-anchor="middle" font-family="-apple-system, BlinkMacSystemFont, 'Segoe UI', Roboto, sans-serif" font-size="11" font-weight="500" fill="#4b5563">9.5</text>
    <g transform="translate(176.0, 178.2)">
      <circle cx="0" cy="0" r="9" fill="#64748b"/>
      <rect x="-3.5" y="-3.5" width="7" height="1.8" rx="0.5" fill="#ffffff"/>
      <rect x="-3.5" y="-0.9" width="7" height="1.8" rx="0.5" fill="#ffffff"/>
      <rect x="-3.5" y="1.7" width="7" height="1.8" rx="0.5" fill="#ffffff"/>
    </g>
  </g>
  <g transform="translate(35, 295)">
    <text x="0" y="16" font-family="-apple-system, BlinkMacSystemFont, 'Segoe UI', Roboto, Helvetica, Arial, sans-serif" font-size="16" font-weight="700" fill="#111827">HumanEval</text>
    <text x="0" y="32" font-family="-apple-system, BlinkMacSystemFont, 'Segoe UI', Roboto, Helvetica, Arial, sans-serif" font-size="11" font-weight="400" fill="#6b7280">Python Code Generation (pass@1)</text>
    <text x="24" y="73.5" text-anchor="end" font-family="-apple-system, BlinkMacSystemFont, 'Segoe UI', Roboto, sans-serif" font-size="10" fill="#9ca3af">30</text>
    <text x="24" y="118.5" text-anchor="end" font-family="-apple-system, BlinkMacSystemFont, 'Segoe UI', Roboto, sans-serif" font-size="10" fill="#9ca3af">20</text>
    <text x="24" y="163.5" text-anchor="end" font-family="-apple-system, BlinkMacSystemFont, 'Segoe UI', Roboto, sans-serif" font-size="10" fill="#9ca3af">10</text>
    <text x="24" y="208.5" text-anchor="end" font-family="-apple-system, BlinkMacSystemFont, 'Segoe UI', Roboto, sans-serif" font-size="10" fill="#9ca3af">0</text>
    <line x1="30" y1="205" x2="205" y2="205" stroke="#e5e7eb" stroke-width="1"/>
    <path d="M 40.0,205.0 L 40.0,126.7 Q 40.0,122.7 44.0,122.7 L 68.0,122.7 Q 72.0,122.7 72.0,126.7 L 72.0,205.0 Z" fill="url(#mabaGrad)"/>
    <text x="56.0" y="116.7" text-anchor="middle" font-family="-apple-system, BlinkMacSystemFont, 'Segoe UI', Roboto, sans-serif" font-size="12" font-weight="700" fill="#111827">18.3</text>
    <g transform="translate(56.0, 138.7)">
      <circle cx="0" cy="0" r="9" fill="#2548dc"/>
      <path d="M 0,-4.5 L 4.2,3 L -4.2,3 Z" fill="none" stroke="#ffffff" stroke-width="1.3" stroke-linejoin="round"/>
      <circle cx="0" cy="0.5" r="1.2" fill="#ffffff"/>
    </g>
    <path d="M 80.0,205.0 L 80.0,140.6 Q 80.0,136.6 84.0,136.6 L 108.0,136.6 Q 112.0,136.6 112.0,140.6 L 112.0,205.0 Z" fill="url(#smolGrad)"/>
    <text x="96.0" y="130.6" text-anchor="middle" font-family="-apple-system, BlinkMacSystemFont, 'Segoe UI', Roboto, sans-serif" font-size="11" font-weight="500" fill="#4b5563">15.2</text>
    <g transform="translate(96.0, 152.6)">
      <circle cx="0" cy="0" r="9" fill="#f59e0b"/>
      <circle cx="-2.5" cy="-1.5" r="1.1" fill="#ffffff"/>
      <circle cx="2.5" cy="-1.5" r="1.1" fill="#ffffff"/>
      <path d="M -3.2,1.5 Q 0,4.2 3.2,1.5" fill="none" stroke="#ffffff" stroke-width="1.3" stroke-linecap="round"/>
    </g>
    <path d="M 120.0,205.0 L 120.0,151.4 Q 120.0,147.4 124.0,147.4 L 148.0,147.4 Q 152.0,147.4 152.0,151.4 L 152.0,205.0 Z" fill="url(#metaGrad)"/>
    <text x="136.0" y="141.4" text-anchor="middle" font-family="-apple-system, BlinkMacSystemFont, 'Segoe UI', Roboto, sans-serif" font-size="11" font-weight="500" fill="#4b5563">12.8</text>
    <g transform="translate(136.0, 163.4)">
      <circle cx="0" cy="0" r="9" fill="#0081fb"/>
      <path d="M -4,0 C -4,-2.2 -1.8,-2.2 0,0 C 1.8,2.2 4,2.2 4,0 C 4,-2.2 1.8,-2.2 0,0 C -1.8,2.2 -4,2.2 -4,0 Z" fill="none" stroke="#ffffff" stroke-width="1.2"/>
    </g>
    <path d="M 160.0,205.0 L 160.0,173.4 Q 160.0,169.4 164.0,169.4 L 188.0,169.4 Q 192.0,169.4 192.0,173.4 L 192.0,205.0 Z" fill="url(#baseGrad)"/>
    <text x="176.0" y="163.4" text-anchor="middle" font-family="-apple-system, BlinkMacSystemFont, 'Segoe UI', Roboto, sans-serif" font-size="11" font-weight="500" fill="#4b5563">7.9</text>
    <g transform="translate(176.0, 185.4)">
      <circle cx="0" cy="0" r="9" fill="#64748b"/>
      <rect x="-3.5" y="-3.5" width="7" height="1.8" rx="0.5" fill="#ffffff"/>
      <rect x="-3.5" y="-0.9" width="7" height="1.8" rx="0.5" fill="#ffffff"/>
      <rect x="-3.5" y="1.7" width="7" height="1.8" rx="0.5" fill="#ffffff"/>
    </g>
  </g>
  <g transform="translate(285, 295)">
    <text x="0" y="16" font-family="-apple-system, BlinkMacSystemFont, 'Segoe UI', Roboto, Helvetica, Arial, sans-serif" font-size="16" font-weight="700" fill="#111827">PIQA</text>
    <text x="0" y="32" font-family="-apple-system, BlinkMacSystemFont, 'Segoe UI', Roboto, Helvetica, Arial, sans-serif" font-size="11" font-weight="400" fill="#6b7280">Physical Commonsense (0-shot)</text>
    <text x="24" y="73.5" text-anchor="end" font-family="-apple-system, BlinkMacSystemFont, 'Segoe UI', Roboto, sans-serif" font-size="10" fill="#9ca3af">80</text>
    <text x="24" y="107.25" text-anchor="end" font-family="-apple-system, BlinkMacSystemFont, 'Segoe UI', Roboto, sans-serif" font-size="10" fill="#9ca3af">60</text>
    <text x="24" y="141.0" text-anchor="end" font-family="-apple-system, BlinkMacSystemFont, 'Segoe UI', Roboto, sans-serif" font-size="10" fill="#9ca3af">40</text>
    <text x="24" y="174.75" text-anchor="end" font-family="-apple-system, BlinkMacSystemFont, 'Segoe UI', Roboto, sans-serif" font-size="10" fill="#9ca3af">20</text>
    <text x="24" y="208.5" text-anchor="end" font-family="-apple-system, BlinkMacSystemFont, 'Segoe UI', Roboto, sans-serif" font-size="10" fill="#9ca3af">0</text>
    <line x1="30" y1="205" x2="205" y2="205" stroke="#e5e7eb" stroke-width="1"/>
    <path d="M 40.0,205.0 L 40.0,90.5 Q 40.0,86.5 44.0,86.5 L 68.0,86.5 Q 72.0,86.5 72.0,90.5 L 72.0,205.0 Z" fill="url(#mabaGrad)"/>
    <text x="56.0" y="80.5" text-anchor="middle" font-family="-apple-system, BlinkMacSystemFont, 'Segoe UI', Roboto, sans-serif" font-size="12" font-weight="700" fill="#111827">70.2</text>
    <g transform="translate(56.0, 102.5)">
      <circle cx="0" cy="0" r="9" fill="#2548dc"/>
      <path d="M 0,-4.5 L 4.2,3 L -4.2,3 Z" fill="none" stroke="#ffffff" stroke-width="1.3" stroke-linejoin="round"/>
      <circle cx="0" cy="0.5" r="1.2" fill="#ffffff"/>
    </g>
    <path d="M 80.0,205.0 L 80.0,93.6 Q 80.0,89.6 84.0,89.6 L 108.0,89.6 Q 112.0,89.6 112.0,93.6 L 112.0,205.0 Z" fill="url(#smolGrad)"/>
    <text x="96.0" y="83.6" text-anchor="middle" font-family="-apple-system, BlinkMacSystemFont, 'Segoe UI', Roboto, sans-serif" font-size="11" font-weight="500" fill="#4b5563">68.4</text>
    <g transform="translate(96.0, 105.6)">
      <circle cx="0" cy="0" r="9" fill="#f59e0b"/>
      <circle cx="-2.5" cy="-1.5" r="1.1" fill="#ffffff"/>
      <circle cx="2.5" cy="-1.5" r="1.1" fill="#ffffff"/>
      <path d="M -3.2,1.5 Q 0,4.2 3.2,1.5" fill="none" stroke="#ffffff" stroke-width="1.3" stroke-linecap="round"/>
    </g>
    <path d="M 120.0,205.0 L 120.0,96.3 Q 120.0,92.3 124.0,92.3 L 148.0,92.3 Q 152.0,92.3 152.0,96.3 L 152.0,205.0 Z" fill="url(#metaGrad)"/>
    <text x="136.0" y="86.3" text-anchor="middle" font-family="-apple-system, BlinkMacSystemFont, 'Segoe UI', Roboto, sans-serif" font-size="11" font-weight="500" fill="#4b5563">66.8</text>
    <g transform="translate(136.0, 108.3)">
      <circle cx="0" cy="0" r="9" fill="#0081fb"/>
      <path d="M -4,0 C -4,-2.2 -1.8,-2.2 0,0 C 1.8,2.2 4,2.2 4,0 C 4,-2.2 1.8,-2.2 0,0 C -1.8,2.2 -4,2.2 -4,0 Z" fill="none" stroke="#ffffff" stroke-width="1.2"/>
    </g>
    <path d="M 160.0,205.0 L 160.0,106.9 Q 160.0,102.9 164.0,102.9 L 188.0,102.9 Q 192.0,102.9 192.0,106.9 L 192.0,205.0 Z" fill="url(#baseGrad)"/>
    <text x="176.0" y="96.9" text-anchor="middle" font-family="-apple-system, BlinkMacSystemFont, 'Segoe UI', Roboto, sans-serif" font-size="11" font-weight="500" fill="#4b5563">60.5</text>
    <g transform="translate(176.0, 118.9)">
      <circle cx="0" cy="0" r="9" fill="#64748b"/>
      <rect x="-3.5" y="-3.5" width="7" height="1.8" rx="0.5" fill="#ffffff"/>
      <rect x="-3.5" y="-0.9" width="7" height="1.8" rx="0.5" fill="#ffffff"/>
      <rect x="-3.5" y="1.7" width="7" height="1.8" rx="0.5" fill="#ffffff"/>
    </g>
  </g>
  <g transform="translate(535, 295)">
    <text x="0" y="16" font-family="-apple-system, BlinkMacSystemFont, 'Segoe UI', Roboto, Helvetica, Arial, sans-serif" font-size="16" font-weight="700" fill="#111827">Active Core Ratio</text>
    <text x="0" y="32" font-family="-apple-system, BlinkMacSystemFont, 'Segoe UI', Roboto, Helvetica, Arial, sans-serif" font-size="11" font-weight="400" fill="#6b7280">% Weights in Computation Core</text>
    <text x="24" y="73.5" text-anchor="end" font-family="-apple-system, BlinkMacSystemFont, 'Segoe UI', Roboto, sans-serif" font-size="10" fill="#9ca3af">100</text>
    <text x="24" y="100.5" text-anchor="end" font-family="-apple-system, BlinkMacSystemFont, 'Segoe UI', Roboto, sans-serif" font-size="10" fill="#9ca3af">80</text>
    <text x="24" y="127.5" text-anchor="end" font-family="-apple-system, BlinkMacSystemFont, 'Segoe UI', Roboto, sans-serif" font-size="10" fill="#9ca3af">60</text>
    <text x="24" y="154.5" text-anchor="end" font-family="-apple-system, BlinkMacSystemFont, 'Segoe UI', Roboto, sans-serif" font-size="10" fill="#9ca3af">40</text>
    <text x="24" y="181.5" text-anchor="end" font-family="-apple-system, BlinkMacSystemFont, 'Segoe UI', Roboto, sans-serif" font-size="10" fill="#9ca3af">20</text>
    <text x="24" y="208.5" text-anchor="end" font-family="-apple-system, BlinkMacSystemFont, 'Segoe UI', Roboto, sans-serif" font-size="10" fill="#9ca3af">0</text>
    <line x1="30" y1="205" x2="205" y2="205" stroke="#e5e7eb" stroke-width="1"/>
    <path d="M 40.0,205.0 L 40.0,80.5 Q 40.0,76.5 44.0,76.5 L 68.0,76.5 Q 72.0,76.5 72.0,80.5 L 72.0,205.0 Z" fill="url(#mabaGrad)"/>
    <text x="56.0" y="70.5" text-anchor="middle" font-family="-apple-system, BlinkMacSystemFont, 'Segoe UI', Roboto, sans-serif" font-size="12" font-weight="700" fill="#111827">95.2</text>
    <g transform="translate(56.0, 92.5)">
      <circle cx="0" cy="0" r="9" fill="#2548dc"/>
      <path d="M 0,-4.5 L 4.2,3 L -4.2,3 Z" fill="none" stroke="#ffffff" stroke-width="1.3" stroke-linejoin="round"/>
      <circle cx="0" cy="0.5" r="1.2" fill="#ffffff"/>
    </g>
    <path d="M 80.0,205.0 L 80.0,102.3 Q 80.0,98.3 84.0,98.3 L 108.0,98.3 Q 112.0,98.3 112.0,102.3 L 112.0,205.0 Z" fill="url(#smolGrad)"/>
    <text x="96.0" y="92.3" text-anchor="middle" font-family="-apple-system, BlinkMacSystemFont, 'Segoe UI', Roboto, sans-serif" font-size="11" font-weight="500" fill="#4b5563">79.0</text>
    <g transform="translate(96.0, 114.3)">
      <circle cx="0" cy="0" r="9" fill="#f59e0b"/>
      <circle cx="-2.5" cy="-1.5" r="1.1" fill="#ffffff"/>
      <circle cx="2.5" cy="-1.5" r="1.1" fill="#ffffff"/>
      <path d="M -3.2,1.5 Q 0,4.2 3.2,1.5" fill="none" stroke="#ffffff" stroke-width="1.3" stroke-linecap="round"/>
    </g>
    <path d="M 120.0,205.0 L 120.0,93.8 Q 120.0,89.8 124.0,89.8 L 148.0,89.8 Q 152.0,89.8 152.0,93.8 L 152.0,205.0 Z" fill="url(#metaGrad)"/>
    <text x="136.0" y="83.8" text-anchor="middle" font-family="-apple-system, BlinkMacSystemFont, 'Segoe UI', Roboto, sans-serif" font-size="11" font-weight="500" fill="#4b5563">85.3</text>
    <g transform="translate(136.0, 105.8)">
      <circle cx="0" cy="0" r="9" fill="#0081fb"/>
      <path d="M -4,0 C -4,-2.2 -1.8,-2.2 0,0 C 1.8,2.2 4,2.2 4,0 C 4,-2.2 1.8,-2.2 0,0 C -1.8,2.2 -4,2.2 -4,0 Z" fill="none" stroke="#ffffff" stroke-width="1.2"/>
    </g>
    <path d="M 160.0,205.0 L 160.0,102.3 Q 160.0,98.3 164.0,98.3 L 188.0,98.3 Q 192.0,98.3 192.0,102.3 L 192.0,205.0 Z" fill="url(#baseGrad)"/>
    <text x="176.0" y="92.3" text-anchor="middle" font-family="-apple-system, BlinkMacSystemFont, 'Segoe UI', Roboto, sans-serif" font-size="11" font-weight="500" fill="#4b5563">79.0</text>
    <g transform="translate(176.0, 114.3)">
      <circle cx="0" cy="0" r="9" fill="#64748b"/>
      <rect x="-3.5" y="-3.5" width="7" height="1.8" rx="0.5" fill="#ffffff"/>
      <rect x="-3.5" y="-0.9" width="7" height="1.8" rx="0.5" fill="#ffffff"/>
      <rect x="-3.5" y="1.7" width="7" height="1.8" rx="0.5" fill="#ffffff"/>
    </g>
  </g>
  <g transform="translate(785, 295)">
    <text x="0" y="16" font-family="-apple-system, BlinkMacSystemFont, 'Segoe UI', Roboto, Helvetica, Arial, sans-serif" font-size="16" font-weight="700" fill="#111827">Throughput (tok/s)</text>
    <text x="0" y="32" font-family="-apple-system, BlinkMacSystemFont, 'Segoe UI', Roboto, Helvetica, Arial, sans-serif" font-size="11" font-weight="400" fill="#6b7280">Edge CPU Single-Threaded</text>
    <text x="24" y="73.5" text-anchor="end" font-family="-apple-system, BlinkMacSystemFont, 'Segoe UI', Roboto, sans-serif" font-size="10" fill="#9ca3af">100</text>
    <text x="24" y="100.5" text-anchor="end" font-family="-apple-system, BlinkMacSystemFont, 'Segoe UI', Roboto, sans-serif" font-size="10" fill="#9ca3af">80</text>
    <text x="24" y="127.5" text-anchor="end" font-family="-apple-system, BlinkMacSystemFont, 'Segoe UI', Roboto, sans-serif" font-size="10" fill="#9ca3af">60</text>
    <text x="24" y="154.5" text-anchor="end" font-family="-apple-system, BlinkMacSystemFont, 'Segoe UI', Roboto, sans-serif" font-size="10" fill="#9ca3af">40</text>
    <text x="24" y="181.5" text-anchor="end" font-family="-apple-system, BlinkMacSystemFont, 'Segoe UI', Roboto, sans-serif" font-size="10" fill="#9ca3af">20</text>
    <text x="24" y="208.5" text-anchor="end" font-family="-apple-system, BlinkMacSystemFont, 'Segoe UI', Roboto, sans-serif" font-size="10" fill="#9ca3af">0</text>
    <line x1="30" y1="205" x2="205" y2="205" stroke="#e5e7eb" stroke-width="1"/>
    <path d="M 40.0,205.0 L 40.0,94.9 Q 40.0,90.9 44.0,90.9 L 68.0,90.9 Q 72.0,90.9 72.0,94.9 L 72.0,205.0 Z" fill="url(#mabaGrad)"/>
    <text x="56.0" y="84.9" text-anchor="middle" font-family="-apple-system, BlinkMacSystemFont, 'Segoe UI', Roboto, sans-serif" font-size="12" font-weight="700" fill="#111827">84.5</text>
    <g transform="translate(56.0, 106.9)">
      <circle cx="0" cy="0" r="9" fill="#2548dc"/>
      <path d="M 0,-4.5 L 4.2,3 L -4.2,3 Z" fill="none" stroke="#ffffff" stroke-width="1.3" stroke-linejoin="round"/>
      <circle cx="0" cy="0.5" r="1.2" fill="#ffffff"/>
    </g>
    <path d="M 80.0,205.0 L 80.0,130.4 Q 80.0,126.4 84.0,126.4 L 108.0,126.4 Q 112.0,126.4 112.0,130.4 L 112.0,205.0 Z" fill="url(#smolGrad)"/>
    <text x="96.0" y="120.4" text-anchor="middle" font-family="-apple-system, BlinkMacSystemFont, 'Segoe UI', Roboto, sans-serif" font-size="11" font-weight="500" fill="#4b5563">58.2</text>
    <g transform="translate(96.0, 142.4)">
      <circle cx="0" cy="0" r="9" fill="#f59e0b"/>
      <circle cx="-2.5" cy="-1.5" r="1.1" fill="#ffffff"/>
      <circle cx="2.5" cy="-1.5" r="1.1" fill="#ffffff"/>
      <path d="M -3.2,1.5 Q 0,4.2 3.2,1.5" fill="none" stroke="#ffffff" stroke-width="1.3" stroke-linecap="round"/>
    </g>
    <path d="M 120.0,205.0 L 120.0,132.9 Q 120.0,128.9 124.0,128.9 L 148.0,128.9 Q 152.0,128.9 152.0,132.9 L 152.0,205.0 Z" fill="url(#metaGrad)"/>
    <text x="136.0" y="122.9" text-anchor="middle" font-family="-apple-system, BlinkMacSystemFont, 'Segoe UI', Roboto, sans-serif" font-size="11" font-weight="500" fill="#4b5563">56.4</text>
    <g transform="translate(136.0, 144.9)">
      <circle cx="0" cy="0" r="9" fill="#0081fb"/>
      <path d="M -4,0 C -4,-2.2 -1.8,-2.2 0,0 C 1.8,2.2 4,2.2 4,0 C 4,-2.2 1.8,-2.2 0,0 C -1.8,2.2 -4,2.2 -4,0 Z" fill="none" stroke="#ffffff" stroke-width="1.2"/>
    </g>
    <path d="M 160.0,205.0 L 160.0,144.1 Q 160.0,140.1 164.0,140.1 L 188.0,140.1 Q 192.0,140.1 192.0,144.1 L 192.0,205.0 Z" fill="url(#baseGrad)"/>
    <text x="176.0" y="134.1" text-anchor="middle" font-family="-apple-system, BlinkMacSystemFont, 'Segoe UI', Roboto, sans-serif" font-size="11" font-weight="500" fill="#4b5563">48.1</text>
    <g transform="translate(176.0, 156.1)">
      <circle cx="0" cy="0" r="9" fill="#64748b"/>
      <rect x="-3.5" y="-3.5" width="7" height="1.8" rx="0.5" fill="#ffffff"/>
      <rect x="-3.5" y="-0.9" width="7" height="1.8" rx="0.5" fill="#ffffff"/>
      <rect x="-3.5" y="1.7" width="7" height="1.8" rx="0.5" fill="#ffffff"/>
    </g>
  </g>
  <g transform="translate(140, 580)">
    <rect x="0" y="0" width="30" height="14" rx="3" fill="url(#mabaGrad)"/>
    <text x="38" y="12" font-family="-apple-system, BlinkMacSystemFont, 'Segoe UI', Roboto, sans-serif" font-size="14" font-weight="700" fill="#111827">Maba v1 (101M)</text>
    <rect x="190" y="0" width="30" height="14" rx="3" fill="url(#smolGrad)"/>
    <text x="228" y="12" font-family="-apple-system, BlinkMacSystemFont, 'Segoe UI', Roboto, sans-serif" font-size="14" font-weight="500" fill="#374151">SmolLM2 (135M)</text>
    <rect x="385" y="0" width="30" height="14" rx="3" fill="url(#metaGrad)"/>
    <text x="423" y="12" font-family="-apple-system, BlinkMacSystemFont, 'Segoe UI', Roboto, sans-serif" font-size="14" font-weight="500" fill="#374151">MobileLLM (125M)</text>
    <rect x="585" y="0" width="30" height="14" rx="3" fill="url(#baseGrad)"/>
    <text x="623" y="12" font-family="-apple-system, BlinkMacSystemFont, 'Segoe UI', Roboto, sans-serif" font-size="14" font-weight="500" fill="#374151">Dense Baseline (100M)</text>
  </g>
</svg>